# xmcd
#
# Track frame offsets:
#  150
#  19290
#  40840
#  58990
#  78408
#  101255
#  121496
#  142432
#  159538
#  182134
#  200813
#
# Disc length: 3085 seconds
#
# Revision: 0
# Processed by: cddbd v1.5.1PL2 Copyright (c) Steve Scherf et al.
# Submitted via: Collectorz.com_Music_Collector 6.10
#
DISCID=a30c0b0b
DTITLE=DivineMAGgees - love me like the roses
DYEAR=2005
DGENRE=Blues
TTITLE0=Little Black Crow
TTITLE1=Hole in the Wall
TTITLE2=Bridges
TTITLE3=Sweet Johnny (Rise)
TTITLE4=Trouble
TTITLE5=Silver Bullets
TTITLE6=Love Me Like the Roses
TTITLE7=Londontown
TTITLE8=Riverlady
TTITLE9=North Carolina
TTITLE10=Begin the Beguine
EXTD=
EXTT0=
EXTT1=
EXTT2=
EXTT3=
EXTT4=
EXTT5=
EXTT6=
EXTT7=
EXTT8=
EXTT9=
EXTT10=
PLAYORDER=
